<svg width="92" height="172" viewBox="0 0 46 86" fill="none" xmlns="http://www.w3.org/2000/svg">
<ellipse cx="23" cy="4" rx="6" ry="4" fill="#2596BE"/>
<circle cx="23" cy="4" r="3" fill="white"/>
<path d="M25 5C25 5.39556 24.8827 5.78224 24.6629 6.11114C24.4432 6.44004 24.1308 6.69638 23.7654 6.84776C23.3999 6.99913 22.9978 7.03874 22.6098 6.96157C22.2219 6.8844 21.8655 6.69392 21.5858 6.41421C21.3061 6.13451 21.1156 5.77814 21.0384 5.39018C20.9613 5.00222 21.0009 4.60009 21.1522 4.23463C21.3036 3.86918 21.56 3.55682 21.8889 3.33706C22.2178 3.1173 22.6044 3 23 3V5H25Z" fill="#044B83"/>
<path d="M6 84.7358V19H39.5V84.1038H35.7075V22.7925H9.79245L29.3868 27.8491V79.6792L9.79245 84.7358H6Z" fill="#2596BE" stroke="#2596BE"/>
<ellipse cx="27.4906" cy="55.6604" rx="0.632075" ry="1.26415" fill="#044B83"/>
<line x1="17.3427" y1="6.3641" x2="0.342681" y2="22.3641" stroke="#044B83"/>
<line y1="-0.5" x2="23.3452" y2="-0.5" transform="matrix(0.7282 0.685365 0.685365 -0.7282 29 6)" stroke="#044B83"/>
<line x1="19.4" y1="8.3" x2="13.4" y2="16.3" stroke="#044B83"/>
<line y1="-0.5" x2="10" y2="-0.5" transform="matrix(0.6 0.8 0.8 -0.6 27 8)" stroke="#044B83"/>
<line x1="21.4903" y1="9.09806" x2="20.4903" y2="14.0981" stroke="#044B83"/>
<line y1="-0.5" x2="5.09902" y2="-0.5" transform="matrix(0.196116 0.980581 0.980581 -0.196116 25 9)" stroke="#044B83"/>
</svg>
