<svg width="39" height="70" viewBox="0 0 39 70" fill="none" xmlns="http://www.w3.org/2000/svg">
<path d="M19.4996 6.51432C22.2054 6.51432 24.3988 5.05603 24.3988 3.25713C24.3988 1.45823 22.2054 -6.10352e-05 19.4996 -6.10352e-05C16.7939 -6.10352e-05 14.6005 1.45823 14.6005 3.25713C14.6005 5.05603 16.7939 6.51432 19.4996 6.51432Z" fill="#2596BE"/>
<path d="M19.5001 5.69951C20.853 5.69951 21.9497 4.60579 21.9497 3.25661C21.9497 1.90744 20.853 0.813721 19.5001 0.813721C18.1472 0.813721 17.0505 1.90744 17.0505 3.25661C17.0505 4.60579 18.1472 5.69951 19.5001 5.69951Z" fill="#00171D"/>
<path d="M21.1326 4.07189C21.1326 4.394 21.0368 4.70887 20.8573 4.97669C20.6779 5.24452 20.4229 5.45325 20.1245 5.57652C19.8261 5.69978 19.4977 5.73204 19.1809 5.6692C18.8642 5.60636 18.5732 5.45125 18.3448 5.22348C18.1164 4.99572 17.9609 4.70553 17.8979 4.38962C17.8349 4.0737 17.8672 3.74625 17.9908 3.44865C18.1144 3.15107 18.3238 2.89672 18.5923 2.71777C18.8609 2.53882 19.1765 2.4433 19.4995 2.4433V4.07189H21.1326Z" fill="#044B83"/>
<path d="M5.61871 68.9999V15.4714H32.9721V68.4852H29.8755V18.5596H8.71533L24.7145 22.6772V64.8823L8.71533 68.9999H5.61871Z" fill="#2596BE" stroke="#2596BE"/>
<path d="M14.8809 5.18188L1 18.2106" stroke="#044B83"/>
<path d="M24.1192 5.18188L38 18.2106" stroke="#044B83"/>
<path d="M16.5605 6.75903L11.6614 13.2734" stroke="#044B83"/>
<path d="M22.4396 6.75903L27.3388 13.2734" stroke="#044B83"/>
<path d="M18.2674 7.409L17.4509 11.4805" stroke="#044B83"/>
<path d="M20.733 7.409L21.5496 11.4805" stroke="#044B83"/>
<path d="M23.1666 46.3529C23.4517 46.3529 23.6827 45.892 23.6827 45.3235C23.6827 44.7549 23.4517 44.2941 23.1666 44.2941C22.8816 44.2941 22.6505 44.7549 22.6505 45.3235C22.6505 45.892 22.8816 46.3529 23.1666 46.3529Z" fill="#044B83"/>
</svg>
